<svg width="570" height="570" viewBox="0 0 570 570" fill="none" xmlns="http://www.w3.org/2000/svg">
<path d="M367.704 367.731C322.061 413.374 322.062 487.525 367.724 533.187C413.387 578.85 487.538 578.851 533.181 533.208C578.849 487.54 578.85 413.387 533.187 367.724C487.525 322.062 413.372 322.062 367.704 367.731ZM367.704 367.731C322.061 413.374 247.931 413.394 202.269 367.732C156.606 322.069 156.605 247.918 202.248 202.275M367.704 367.731C413.372 322.062 413.394 247.931 367.731 202.269C322.069 156.606 247.916 156.607 202.248 202.275M202.248 202.275C156.605 247.918 82.4534 247.916 36.7912 202.254C-8.87093 156.592 -8.85114 82.4622 36.7922 36.8189C82.4603 -8.84927 156.592 -8.87089 202.254 36.7913C247.916 82.4534 247.916 156.607 202.248 202.275Z" stroke="white" stroke-width="4" stroke-miterlimit="20" stroke-linecap="round"/>
</svg>
