<svg width="238" height="704" viewBox="0 0 238 704" fill="none" xmlns="http://www.w3.org/2000/svg">
<path d="M119.315 468.647C54.949 468.647 2.66664 520.931 2.66665 585.323C2.66665 649.715 54.949 702 119.315 702C183.715 702 236 649.715 236 585.323C236 520.931 183.715 468.647 119.315 468.647ZM119.315 468.647C54.949 468.647 2.66663 416.392 2.66663 352C2.66662 287.608 54.949 235.323 119.314 235.323M119.315 468.647C183.715 468.647 236 416.392 236 352C236 287.608 183.715 235.323 119.314 235.323M119.314 235.323C54.949 235.323 2.66661 183.039 2.66661 118.647C2.6666 54.2545 54.949 2.00002 119.314 2.00001C183.715 2 236 54.2545 236 118.647C236 183.039 183.715 235.323 119.314 235.323Z" stroke="#0000FF" stroke-width="4" stroke-miterlimit="20" stroke-linecap="round"/>
</svg>
